<?xml version="1.0" standalone="no"?>
<!DOCTYPE svg PUBLIC "-//W3C//DTD SVG 20010904//EN"
 "http://www.w3.org/TR/2001/REC-SVG-20010904/DTD/svg10.dtd">
<svg version="1.0" xmlns="http://www.w3.org/2000/svg"
 width="512.000000pt" height="512.000000pt" viewBox="0 0 512.000000 512.000000"
 preserveAspectRatio="xMidYMid meet">
<metadata>
Created by potrace 1.14, written by Peter Selinger 2001-2017
</metadata>
<g transform="translate(0.000000,512.000000) scale(0.100000,-0.100000)"
fill="#000000" stroke="none">
<path d="M2470 5102 c0 -11 -16 -33 -35 -50 -64 -59 -60 -146 10 -217 75 -74
150 -74 227 1 73 70 78 151 13 214 -19 19 -35 42 -35 52 0 16 -10 18 -90 18
-81 0 -90 -2 -90 -18z"/>
<path d="M1431 4735 c-50 -45 -65 -82 -59 -146 4 -40 12 -57 39 -85 50 -53 84
-67 142 -61 45 4 56 10 100 56 l49 52 -4 66 c-4 63 -6 67 -50 109 -46 43 -49
44 -112 44 -61 0 -69 -2 -105 -35z"/>
<path d="M3469 4721 c-48 -47 -49 -49 -49 -110 0 -61 1 -64 48 -113 43 -45 54
-51 99 -55 58 -6 92 8 142 61 27 28 35 45 39 85 6 64 -9 101 -59 146 -36 33
-44 35 -105 35 -67 0 -67 0 -115 -49z"/>
<path d="M775 4071 c-61 -37 -79 -67 -83 -134 -3 -53 0 -67 20 -97 13 -19 39
-45 58 -58 29 -20 44 -23 93 -20 54 4 62 8 105 51 46 47 47 48 47 113 l0 65
-52 50 c-49 46 -55 49 -105 49 -34 0 -64 -7 -83 -19z"/>
<path d="M4157 4041 l-52 -50 0 -66 0 -66 52 -50 c48 -46 55 -49 103 -49 173
0 235 210 91 307 -25 17 -48 23 -88 23 -52 0 -57 -3 -106 -49z"/>
<path d="M2380 3717 c-89 -38 -117 -56 -179 -118 -59 -59 -80 -91 -109 -159
-39 -91 -44 -119 -40 -214 3 -75 9 -106 38 -176 30 -74 45 -95 115 -165 72
-72 89 -83 170 -115 80 -31 100 -35 185 -35 85 0 105 4 185 35 81 32 98 43
170 115 81 81 83 84 142 240 20 52 14 232 -9 267 -8 13 -21 41 -28 62 -20 62
-97 153 -177 212 -15 11 -63 34 -105 52 -71 29 -87 32 -180 32 -93 -1 -110 -4
-178 -33z"/>
<path d="M281 3229 c-41 -16 -89 -71 -102 -117 -17 -61 0 -109 56 -161 42 -39
48 -41 105 -41 59 0 63 2 110 46 74 69 80 149 17 221 -50 57 -123 77 -186 52z"/>
<path d="M4705 3221 c-45 -27 -83 -76 -91 -116 -11 -62 3 -99 56 -149 47 -44
51 -46 110 -46 57 0 63 2 105 41 79 73 83 153 12 231 -55 60 -132 76 -192 39z"/>
<path d="M445 2546 c-42 -18 -93 -79 -101 -121 -15 -83 17 -138 127 -216 53
-39 102 -76 161 -124 9 -7 29 -22 45 -31 24 -16 47 -33 112 -86 41 -33 101
-77 119 -87 11 -6 49 -34 86 -63 127 -102 129 -103 236 -102 55 0 121 8 156
17 34 9 124 24 200 32 77 8 164 22 194 30 30 8 60 15 67 15 29 0 33 -83 33
-676 0 -453 3 -603 12 -612 18 -18 1321 -17 1336 1 8 9 12 196 14 604 2 463 6
593 16 605 11 14 16 14 50 -3 20 -10 73 -35 117 -54 44 -20 103 -47 130 -60
28 -13 61 -28 75 -35 14 -6 36 -17 50 -25 39 -23 118 -18 175 10 28 13 57 25
65 25 8 0 40 12 70 26 30 14 73 32 95 39 57 19 165 63 197 81 15 8 51 22 80
30 28 9 61 22 72 29 12 7 41 19 66 25 25 6 56 18 69 27 13 8 45 22 71 32 27 9
66 33 89 53 45 42 57 82 47 155 -5 37 -14 52 -48 84 -62 55 -137 63 -225 22
-17 -8 -62 -23 -100 -33 -37 -10 -88 -25 -113 -34 -71 -24 -168 -55 -255 -81
-44 -12 -98 -30 -120 -39 -61 -23 -83 -20 -180 30 -49 25 -103 53 -120 61 -16
7 -41 20 -55 28 -14 8 -41 22 -60 30 -19 9 -42 20 -50 25 -55 34 -310 152
-380 176 l-85 29 -475 0 c-439 0 -478 -1 -515 -18 -22 -10 -73 -25 -113 -33
-40 -7 -89 -22 -110 -33 -20 -10 -57 -22 -82 -26 -25 -4 -64 -16 -87 -26 -23
-10 -66 -24 -95 -30 -29 -6 -69 -20 -89 -30 -19 -9 -71 -24 -113 -32 -86 -16
-120 -9 -177 37 -15 11 -50 35 -79 51 -29 17 -64 40 -78 51 -15 12 -46 31 -69
42 -23 12 -45 27 -48 32 -4 6 -17 16 -28 21 -12 5 -36 20 -53 32 -18 12 -47
31 -65 42 -18 11 -49 30 -69 42 -87 55 -136 65 -195 39z"/>
</g>
</svg>
